<svg xmlns="http://www.w3.org/2000/svg" xmlns:xlink="http://www.w3.org/1999/xlink" width="1920" height="1250" viewBox="0 0 1920 1250">
  <defs>
    <clipPath id="clip-Web_1920_2">
      <rect width="1920" height="1250"/>
    </clipPath>
  </defs>
  <g id="Web_1920_2" data-name="Web 1920 – 2" clip-path="url(#clip-Web_1920_2)">
    <rect width="1920" height="1250" fill="#212434"/>
    <!-- <g id="Прямоугольник_2" data-name="Прямоугольник 2" transform="translate(1429 26)" fill="none" stroke="#7d9eee" stroke-width="1">
      <rect width="76" height="28" rx="2" stroke="none"/>
      <rect x="0.5" y="0.5" width="75" height="27" rx="1.5" fill="none"/>
    </g>
    <text id="Вход" transform="translate(1451 46)" fill="#fefefe" font-size="14" font-family="Comfortaa"><tspan x="0" y="0">Вход</tspan></text>
    <g id="Прямоугольник_3" data-name="Прямоугольник 3" transform="translate(1520 26)" fill="#7d9eee" stroke="#7d9eee" stroke-width="1">
      <rect width="140" height="28" rx="2" stroke="none"/>
      <rect x="0.5" y="0.5" width="139" height="27" rx="1.5" fill="none"/>
    </g>
    <text id="Регистрация" transform="translate(1544 46)" fill="#fefefe" font-size="14" font-family="Comfortaa"><tspan x="0" y="0">Регистрация</tspan></text> -->
       <text id="sei666_rambler.ru" data-name="sei666@rambler.ru" transform="translate(1540 47)" fill="#fefefe" font-size="13" font-family="Comfortaa"><tspan x="0" y="0">sei666@rambler.ru</tspan></text>
    <g id="Сгруппировать_1" data-name="Сгруппировать 1" transform="translate(-118 -39)">
      <text id="КЛУБ_ЭЛЬБРУС_" data-name="КЛУБ &quot;ЭЛЬБРУС&quot;" transform="translate(381 110)" fill="#fefefe" font-size="11" font-family="Comfortaa-Bold, Comfortaa" font-weight="700"><tspan x="0" y="0">КЛУБ &quot;ЭЛЬБРУС&quot;</tspan></text>
      <g id="main-logo" transform="translate(378 49)">
        <path id="Контур_1" data-name="Контур 1" d="M.053,23.032l88.853.094-15.843-11.5-5.2-2.048-5.8-.63L59.519,6.364l-2.394-.41L50.1.095,46.7,0,42.857,2.773,39.109.41,35.8.095l-.945,1.04L36.81,3.182,33.755,5.86l2.3,1.544-9.7,2.993,7.5-8.129-20.347,12,7.748-1.544.094,1.04,6.646-1.134L29.6,14.084,17.407,20.542l3.055-3.907Zm28.6-4.632,9.008-1.638,5.2-8.633L47.8,12.949l6.8,3.182-5.292-5.545L49.22,4.632l8.693,10.681,1.7-3.907,10.142,1.544,12.252,7.719-57.513.189Z" fill="#fefefe"/>
      </g>
      <line id="Линия_3" data-name="Линия 3" x2="86" transform="translate(380.5 94.5)" fill="none" stroke="#fefefe" stroke-width="1"/>
      <text id="ЛИДЕРЫ_РОССИИ" data-name="ЛИДЕРЫ РОССИИ" transform="translate(380 88)" fill="#fefefe" font-size="10" font-family="Comfortaa-Bold, Comfortaa" font-weight="700"><tspan x="0" y="0">ЛИДЕРЫ РОССИИ</tspan></text>
    </g>
    <g id="Сгруппировать_3" data-name="Сгруппировать 3">
      <g id="Сгруппировать_2" data-name="Сгруппировать 2" transform="translate(0 -550)">
        <g id="tally" transform="translate(0 736)">
          <g id="_a1b3bfff" data-name="#a1b3bfff" transform="translate(107.648 0)">
            <path id="Контур_3" data-name="Контур 3" d="M987.46,139.376c12.89-4.655,25.862-9.124,38.814-13.676l.29,1.407c-6.124,12.579-12.31,25.117-18.373,37.717,11.028,7.862,22.076,15.745,33.021,23.752,4.717,4.055,11.317,3.021,17.069,3.724,4.676.828,9.248,2.069,13.9,3.186-6.579,5.876-14.09,10.469-21.31,15.435-.186,10.117.414,20.255-.434,30.352-4.655-2.069-9.29-4.117-13.945-6.145,2.628,17.276,4.986,34.635,8.5,51.766,12.248-18.31,21.848-38.3,34.241-56.5,4.593,29.028,11.234,57.869,11.979,87.372q21.848,4.624,43.614,9.641c5.421-15.31,10.159-30.848,15.414-46.221.31.517.91,1.531,1.2,2.048.186,14.172,4.614,27.848,5.772,41.938-2.69,1.862-5.938,2.628-8.938,3.786,1.573,20.441,3.911,40.821,5.442,61.283,6.786-16.966,12-34.552,17.958-51.828,3.166,1.883,6.352,3.766,9.559,5.69,5.255,24.621,15.766,47.607,23.628,71.421,5.69,17.772,14.193,34.428,21.393,51.6,7.552-12.724,14.772-25.634,22.283-38.4q1.366,1.893,2.793,3.848c-3.538,9.972-2.648,20.69-3.7,31.034-.145,9.414-8.317,15.683-12.434,23.462,5.028-2.814,9.952-5.834,14.814-8.959,5.3,11.276,10.821,22.407,16.034,33.724a24.374,24.374,0,0,0,5.731,8.566c.352.352,1.1,1.076,1.448,1.448,5.007-17.131,9.745-34.324,14.731-51.455,1.283,4.428,2.648,8.876,3.786,13.386,1.655,22.407,6.7,44.4,9.31,66.724,12.538-2.979,24.517-7.779,36.766-11.71a107.576,107.576,0,0,1,9.579,13.428v125.09c-.641-3.869-1.655-7.655-2.462-11.483-1.428-16.49-.166-33.083-.931-49.614-114.476,46.034-228.124,94.159-342.538,140.359,1.3-17.752,4.324-35.338,6.724-52.966,38.3-.1,76.572,0,114.869-.062-56.441-55.883-112.179-112.49-168.766-168.228,6.579,27.91,12.724,55.945,19.117,83.9-18.041-9.848-35.669-20.441-53.71-30.331,7.49,30.766,15.517,61.386,22.8,92.193-11.3-3.766-22.51-7.862-33.972-11.069,18.559,34.076,38.276,67.49,56.876,101.545-36.869,15.207-73.634,30.724-110.69,45.5-22.428,5.421-45.455,8.069-68.048,12.7-32.421,5.669-64.8,11.628-97.221,17.193a18.415,18.415,0,0,0-7.9,4.014Q616.122,905.39,550.35,959.41c-3.931,3.993-9.765,2.048-14.69,1.966,31.262-93.331,63.083-186.455,94.1-279.848,24.207,11.152,47.048,25.076,71.11,36.579,4.386-7.779,9.269-15.248,13.841-22.9-6.207-4.552-12.5-9.021-18.435-13.924,14.007-52.7,27.5-105.538,41.483-158.214,17.3,9.993,34.448,20.276,51.869,30.1-2.669-15.186-6.352-30.145-9.435-45.228-.931-33.538-.538-67.1-1.3-100.635,10.241-7.965,21.1-15.145,31.448-22.986.124-12.041,1.345-24.083.931-36.124,15.6-1.159,30.621-6.062,46.2-7.655,9.683,31.1,19.634,62.131,29.483,93.186q8.317,1.645,16.7,3.124c-.269-.786-.765-2.338-1.014-3.124q4.376-55.583,8.731-111.165c11.71,1.717,23.4,3.538,35.11,5.214-.165-31.924-1.386-63.848-1.055-95.793,5.607,9.724,8.483,20.628,12.393,31.076,3.186-5.11,6.1-10.386,8.793-15.786,3.207,1.428,6.248,4.221,9.807,4.469,4.159-5.814,8.545-12.331,7.924-19.862-.1-26.938.062-53.876-.145-80.814.062-4.138-.331-8.834,3.269-11.69m55.759,241.593c9.683,20.317,20.172,40.283,30.062,60.5,3.124,15.29,4.924,31.448,1.572,46.841-1.076,7.076-5.772,12.517-11.462,16.49,53.441,36.372,106.262,73.676,159.786,109.883-23.007-43.076-46.717-85.779-69.724-128.855-3.786-7.635-11.214-12.248-16.966-18.207q-46.738-43.2-93.269-86.648M769.826,581.121c-6,1.759-12.248-.641-18.228-1.448,5.048,3.869,10.221,7.614,15.269,11.5,8.131,6.848,19.386,7.034,29.276,9.517-7.966-10.345-17.007-19.779-25.366-29.772.476,3.331,3.062,8.131-.952,10.2M781.97,715.045c.724,10.262,1.2,21.476-5.69,29.959,8.462,4.9,17.565,8.69,26.255,13.179,15.579,7.117,30.434,15.807,46.345,22.138C826.722,758.431,804.481,736.583,781.97,715.045Z" transform="translate(464.954 -125.7)" fill="#a1b3bf"/>
            <path id="Контур_4" data-name="Контур 4" d="M643.754,536.18c30.31-4.552,60.5-10.2,90.89-14.11q112.686,2.421,225.414,5.152c-2.793,1.634-5.565,3.414-8.69,4.324-63.724,17.772-127.324,35.938-191.007,53.793-16.076,2.338-32.235-2.028-48.414-1.345-15.848.745-31.552-2.069-47.379-2.048-22.055.434-44.09-3.952-66.124-1.49-10.655,2.648-20.959,6.517-31.531,9.414-8.876,2.379-17.4,6.662-26.752,6.7q-170.659-.093-341.359,0c-8.814-.352-18.207,1.51-26.524-2.3C132.409,577.291,91.63,562.456,52.03,544.808,165.8,552.98,279.616,560.491,393.389,568.5c3.848.517,7.614-.455,11.193-1.759,32.11-11.524,64.51-22.3,96.434-34.262,13.552-2.545,27.89-.765,41.09,2.979,22.841,1.738,45.745,2.731,68.607,4.345C621.865,540.836,632.768,537.546,643.754,536.18Z" transform="translate(-52.03 298.006)" fill="#a1b3bf"/>
          </g>
          <g id="_f8faf9ff" data-name="#f8faf9ff" transform="translate(1202.359 1.407)">
            <path id="Контур_5" data-name="Контур 5" d="M764.05,164.1c6.062-12.6,12.248-25.138,18.372-37.717,6.31,20.834,12.352,41.752,18.848,62.524,4.262.869,8.566,1.779,12.869,2.669-5.752-.7-12.352.331-17.069-3.724C786.126,179.842,775.078,171.959,764.05,164.1Z" transform="translate(-385.616 -126.38)" fill="#f8faf9"/>
            <path id="Контур_6" data-name="Контур 6" d="M771.991,133.841c.972-.372,2.938-1.138,3.91-1.531-3.6,2.855-3.207,7.552-3.269,11.69.207,26.938.041,53.876.145,80.814.621,7.531-3.766,14.048-7.924,19.862-3.559-.248-6.6-3.041-9.807-4.469-2.69,5.4-5.607,10.676-8.793,15.786-3.91-10.448-6.786-21.352-12.393-31.076l-.29-1.283q19.148,3.01,38.255,6.145C771.97,197.793,771.68,165.827,771.991,133.841Z" transform="translate(-418.198 -120.041)" fill="#f8faf9"/>
            <path id="Контур_7" data-name="Контур 7" d="M813.42,159.43c.31.041.91.166,1.221.207,1.945,11.566,3.972,23.11,5.835,34.7-12.393,18.207-21.993,38.193-34.241,56.5-3.517-17.131-5.876-34.49-8.5-51.766,4.655,2.028,9.29,4.076,13.945,6.145.848-10.1.248-20.234.435-30.352C799.33,169.9,806.84,165.306,813.42,159.43Z" transform="translate(-370.992 -91.051)" fill="#f8faf9"/>
            <path id="Контур_8" data-name="Контур 8" d="M840.7,243.778c-1.159-14.09-5.586-27.765-5.772-41.938A187.246,187.246,0,0,1,856.608,233.7c3.414,9.434,5.214,19.386,8.11,29.007-3.207-1.924-6.393-3.807-9.559-5.69C849.2,274.3,843.987,291.881,837.2,308.847c-1.531-20.462-3.869-40.841-5.441-61.283C834.76,246.406,838.008,245.64,840.7,243.778Z" transform="translate(-313.236 -45.716)" fill="#f8faf9"/>
            <path id="Контур_9" data-name="Контур 9" d="M690.94,228.45c6.724,2.545,13.448,5.069,20.172,7.7,8.545,29.235,16.51,58.655,25.531,87.745.248.786.745,2.338,1.014,3.124q-8.379-1.49-16.7-3.124c-9.848-31.055-19.8-62.09-29.483-93.186Z" transform="translate(-463.768 -17.271)" fill="#f8faf9"/>
            <path id="Контур_10" data-name="Контур 10" d="M780.98,249.08q46.459,43.51,93.269,86.648c5.752,5.959,13.179,10.572,16.966,18.207,23.007,43.076,46.717,85.779,69.724,128.855-53.524-36.207-106.345-73.51-159.786-109.883,5.69-3.972,10.386-9.414,11.462-16.49,3.352-15.393,1.552-31.552-1.572-46.841C801.152,289.363,790.663,269.4,780.98,249.08Z" transform="translate(-367.518 4.782)" fill="#f8faf9"/>
            <path id="Контур_11" data-name="Контур 11" d="M886.2,305.054c1.055-10.345.165-21.062,3.7-31.034,7.862,28.986,11.421,59.09,20.441,87.828a24.375,24.375,0,0,1-5.731-8.566c-5.214-11.317-10.738-22.448-16.034-33.724-4.862,3.124-9.786,6.145-14.814,8.959C877.887,320.737,886.06,314.468,886.2,305.054Z" transform="translate(-268.329 31.442)" fill="#f8faf9"/>
            <path id="Контур_12" data-name="Контур 12" d="M901.1,298.77c3.559,13.324,7.8,26.462,12.29,39.5,11.255,5.172,22.49,10.428,33.786,15.517-12.248,3.931-24.228,8.731-36.766,11.71C907.8,343.17,902.755,321.177,901.1,298.77Z" transform="translate(-239.114 57.899)" fill="#f8faf9"/>
            <path id="Контур_13" data-name="Контур 13" d="M634.023,324.416c13.862-4.759,27.848-9.248,41.752-13.965,3.083,15.083,6.765,30.041,9.434,45.228-17.421-9.828-34.572-20.11-51.869-30.1Z" transform="translate(-525.34 70.384)" fill="#f8faf9"/>
            <path id="Контур_14" data-name="Контур 14" d="M761.646,323.68c56.586,55.738,112.324,112.345,168.766,168.228-38.3.062-76.572-.041-114.869.062-2.4,17.628-5.421,35.214-6.724,52.966-11.938,5.172-24.062,9.952-36.062,14.979-18.6-34.055-38.317-67.469-56.876-101.545,11.462,3.207,22.676,7.3,33.972,11.069-7.283-30.807-15.31-61.428-22.8-92.193,18.041,9.89,35.669,20.483,53.71,30.331C774.37,379.625,768.225,351.59,761.646,323.68Z" transform="translate(-437.108 84.527)" fill="#f8faf9"/>
            <path id="Контур_15" data-name="Контур 15" d="M658.258,351.09c4.014-2.069,1.428-6.869.952-10.2,8.359,9.993,17.4,19.428,25.366,29.772-9.89-2.483-21.145-2.669-29.276-9.517-5.048-3.89-10.221-7.634-15.269-11.5C646.009,350.449,652.258,352.849,658.258,351.09Z" transform="translate(-518.189 102.924)" fill="#f8faf9"/>
            <path id="Контур_16" data-name="Контур 16" d="M864.163,459.919c53.979-25.076,108.869-48.414,163.055-73.159.807,3.828,1.821,7.614,2.462,11.483v58.014c-.248-6.517-.476-13.055-.455-19.572Q931,473.119,832.88,509.8C843.577,493.353,852.887,475.953,864.163,459.919Z" transform="translate(-312.039 151.957)" fill="#f8faf9"/>
            <path id="Контур_17" data-name="Контур 17" d="M581.14,394.622c22.138-.91,44.359-.393,66.517-.248,5.938,4.9,12.228,9.372,18.435,13.924-4.572,7.655-9.455,15.124-13.841,22.9C628.188,419.7,605.347,405.773,581.14,394.622Z" transform="translate(-581.14 159.799)" fill="#f8faf9"/>
            <path id="Контур_18" data-name="Контур 18" d="M657.65,410.55c22.51,21.538,44.752,43.386,66.91,65.276-15.91-6.331-30.766-15.021-46.345-22.138-8.69-4.49-17.793-8.276-26.255-13.179C658.85,432.026,658.374,420.812,657.65,410.55Z" transform="translate(-505.436 177.388)" fill="#f8faf9"/>
            <path id="Контур_19" data-name="Контур 19" d="M679.8,550.146Q834.2,488.108,988.49,425.76c-8.855,14.648-18.166,29.007-27.352,43.428Q820.459,509.626,679.8,550.146Z" transform="translate(-475.676 193.647)" fill="#f8faf9"/>
            <path id="Контур_20" data-name="Контур 20" d="M615.15,507.105c63.207-3.166,126.372-7.117,189.559-10.655q-40.841,43.2-81.807,86.3c-1.614-16.221-3.476-32.421-4.945-48.662-12.186,5.5-24.145,11.5-36.641,16.221C659.426,535.657,637.226,521.464,615.15,507.105Z" transform="translate(-544.784 269.212)" fill="#f8faf9"/>
          </g>
          <g id="_7d8e9eff" data-name="#7d8e9eff" transform="translate(0 179.483)">
            <path id="Контур_21" data-name="Контур 21" d="M684.58,213.133c9.207-.972,18.517-.29,27.786-.683.683,11.028,1.117,22.1,2.172,33.1l.538,2.255c-15.579,1.593-30.6,6.5-46.2,7.655-.145-11.379,1.1-22.717,1.2-34.1C674.876,218.574,679.407,215.2,684.58,213.133Z" transform="translate(714.993 -212.45)" fill="#7d8e9e"/>
            <path id="Контур_22" data-name="Контур 22" d="M1574.069,503.139c114.414-46.2,228.062-94.324,342.538-140.359.765,16.531-.5,33.124.931,49.614-54.186,24.745-109.076,48.083-163.055,73.159-11.276,16.034-20.586,33.435-31.283,49.883q98.1-36.776,196.345-73.117c-.021,6.517.207,13.055.455,19.572V936.339H0V671.056c35.772,14.917,71.876,29.09,107.648,44.028,39.6,17.648,80.379,32.483,120.248,49.469,8.317,3.807,17.71,1.945,26.524,2.3q170.69-.062,341.359,0c9.352-.041,17.876-4.324,26.752-6.7,10.572-2.9,20.876-6.766,31.531-9.414,22.034-2.462,44.069,1.924,66.124,1.49,15.828-.021,31.531,2.793,47.379,2.048,16.179-.683,32.338,3.683,48.414,1.345,63.683-17.855,127.283-36.021,191.007-53.793,3.124-.91,5.9-2.69,8.69-4.324,30.89,3.1,61.7,7.117,92.586,10.448,4.924.083,10.759,2.028,14.69-1.966q65.607-54.186,131.193-108.455a18.416,18.416,0,0,1,7.9-4.014c32.421-5.565,64.8-11.524,97.221-17.193,22.593-4.634,45.621-7.283,68.048-12.7,37.055-14.772,73.821-30.29,110.69-45.5,12-5.028,24.124-9.807,36.062-14.979M1406.483,617.47q140.71-40.314,281.338-80.959c9.186-14.421,18.5-28.779,27.352-43.428q-154.242,62.441-308.69,124.386m-133.759,32.524c22.076,14.359,44.276,28.552,66.166,43.2,12.5-4.717,24.455-10.717,36.641-16.221,1.469,16.241,3.331,32.441,4.945,48.662q41.09-42.983,81.807-86.3C1399.1,642.877,1335.931,646.828,1272.724,649.994Z" transform="translate(0 -51.752)" fill="#7d8e9e"/>
          </g>
        </g>
      </g>
      <g id="_000000ff" data-name="#000000ff" transform="translate(330.521 917)">
        <path id="Контур_23" data-name="Контур 23" d="M57.144,0h.476c.417.551.862,1.079,1.3,1.606a53.328,53.328,0,0,1-2.716,4.8c-.354.476.126,1.039.2,1.539l-1.575.224a7.32,7.32,0,0,0-.386,3.079c.8,7.535,2.142,15.015,2.5,22.593.209,3.515.555,7.094-.173,10.57-1.039,4.118-4.448,7.153-8.133,8.98-3.212,1.594-6.326,3.37-9.515,5a7.078,7.078,0,0,0,3.319,2.327c5.185,1.378,10.586.823,15.877.894l.461-1.287a12.162,12.162,0,0,1,1.9,1.835,17.883,17.883,0,0,1,.22,1.949c-.319.228-.642.461-.957.693q-.118,1.116-.213,2.24c1.563.964,2.149,2.771,3.012,4.283A51.656,51.656,0,0,1,68.9,91.19l.283-.543v8.511a76.142,76.142,0,0,1-5.488,14.605c-.925,1.807-1.649,3.823-3.2,5.2a3.766,3.766,0,0,1-2.708.835c-15.751-.287-31.505-.268-47.252-.512a3.354,3.354,0,0,1-3.307-1.846c-1.709-3.728-3.063-7.606-4.657-11.381a21.628,21.628,0,0,1-1.319-3.728C-.792,91.343,1.2,79.494,7.5,70.168a6.639,6.639,0,0,1,2.362-1.85,3.7,3.7,0,0,1-.126-2.13c-1.228-.728-.783-2.146-.681-3.315.4-.213.807-.425,1.213-.638.323.252.65.5.972.748A11.462,11.462,0,0,1,13.6,60.956a10.68,10.68,0,0,1,2.031.114,7.735,7.735,0,0,0,1.921-1.087c.579.579,1.071,1.476,2.023,1.335,4.141.091,8.7.331,12.279-2.142,1.272-.7,1.508-2.409,2.846-3,3.555-1.8,7.2-3.4,10.822-5.055a12.229,12.229,0,0,0,5.082-4.008,16.27,16.27,0,0,0,2.567-11.259c-.835-7.181-1.827-14.345-2.7-21.522a56.066,56.066,0,0,1-.11-5.752c-2.173-.15-4.35-.307-6.527-.409.327.417.653.835.98,1.248-.543.732-1.09,1.464-1.649,2.185a12.507,12.507,0,0,1-1.413-1.96c.012-.87.783-1.5,1.15-2.236-.307.067-.929.2-1.236.26,2.606-1.874,5.106-3.9,7.7-5.791.827-.653,1.941-.252,2.9-.268,1.724.126,4.015.287,4.874-1.606M10.652,65.893a1.681,1.681,0,0,0,.815,2.2c1.709-.524,3.476-.882,5.133-1.563-.067-.575-.15-1.142-.248-1.712a17.7,17.7,0,0,0-5.7,1.075m7.83-.925c.079.421.157.846.24,1.272,5.275.118,10.55.26,15.83.291,1.224.012,2.4-.4,3.622-.429a4.286,4.286,0,0,0,1.429.539c3.472.2,6.952.291,10.428.374a2.6,2.6,0,0,1-1.209-1.508c-10.113-.157-20.227-.437-30.34-.539M53.593,66.2c-.067.189-.2.567-.264.756,1.634.028,3.267.039,4.9.051.142-.65.268-1.307.378-1.964-1.665.405-3.362.7-5.015,1.157M17.443,71.408A57.587,57.587,0,0,0,14.714,93.5c12.826.169,25.656.374,38.485.5.071-7.5-1.689-14.908-4.019-22q-15.867-.289-31.738-.583m41.009-.3c3.185,6.948,4.323,14.637,4.8,22.207,1.031-.181,2.059-.374,3.086-.59A54.88,54.88,0,0,0,59.857,71.1c-.35,0-1.055.012-1.405.012m-49.158,1.2A38.9,38.9,0,0,0,2.9,96.245Q6.54,95.1,10.223,94.1c-.819-7.661.8-15.373,3.134-22.644-1.362.244-2.708.559-4.063.854m45.138-.457a69.341,69.341,0,0,1,3.988,22.05c1-.13,2-.272,2.992-.433-.716-7.488-1.185-15.412-5.169-22.014C55.637,71.593,55.034,71.723,54.432,71.857Z" transform="translate(0)" fill="#fefefe"/>
      </g>
      <line id="Линия_9" data-name="Линия 9" x1="1213" y2="643" transform="translate(172.5 389.5)" fill="none" stroke="#fefefe" stroke-width="3"/>
      <g id="Эллипс_34" data-name="Эллипс 34" transform="translate(1155 498)" fill="#fff" stroke="#707070" stroke-width="1">
        <circle cx="10" cy="10" r="10" stroke="none"/>
        <circle cx="10" cy="10" r="9.5" fill="none"/>
      </g>
      <g id="Эллипс_35" data-name="Эллипс 35" transform="translate(893 633)" fill="#fff" stroke="#707070" stroke-width="1">
        <circle cx="10" cy="10" r="10" stroke="none"/>
        <circle cx="10" cy="10" r="9.5" fill="none"/>
      </g>
      <g id="Эллипс_36" data-name="Эллипс 36" transform="translate(371 912)" fill="#fff" stroke="#707070" stroke-width="1">
        <circle cx="10" cy="10" r="10" stroke="none"/>
        <circle cx="10" cy="10" r="9.5" fill="none"/>
      </g>
      <g id="Эллипс_37" data-name="Эллипс 37" transform="translate(627 777)" fill="#fff" stroke="#707070" stroke-width="1">
        <circle cx="10" cy="10" r="10" stroke="none"/>
        <circle cx="10" cy="10" r="9.5" fill="none"/>
      </g>
    </g>
    <text id="Дряев_Михаил_Мустафаевич_" data-name="Дряев Михаил Мустафаевич " transform="translate(499 148)" fill="#fefefe" font-size="14" font-family="Comfortaa-Bold, Comfortaa" font-weight="700"><tspan x="0" y="0">Дряев Михаил Мустафаевич </tspan></text>
    <text id="Ученик" transform="translate(260 148)" fill="#fefefe" font-size="14" font-family="Comfortaa"><tspan x="0" y="0">Ученик</tspan></text>
    <line id="Линия_17" data-name="Линия 17" x2="448" transform="translate(260.5 161.5)" fill="none" stroke="#7d9eee" stroke-width="1"/>
    <text id="Баллы" transform="translate(260 368)" fill="#fefefe" font-size="14" font-family="Comfortaa"><tspan x="0" y="0">Баллы</tspan></text>
    <line id="Линия_18" data-name="Линия 18" x2="448" transform="translate(260.5 384.5)" fill="none" stroke="#7d9eee" stroke-width="1"/>
    <text id="Пройденные_мероприятия_" data-name="Пройденные 
мероприятия " transform="translate(260 206)" fill="#fefefe" font-size="14" font-family="Comfortaa"><tspan x="0" y="0">Пройденные </tspan><tspan x="0" y="17">мероприятия </tspan></text>
    <text id="Верный_выбор_Моя_родная_школа" data-name="Верный выбор, Моя родная школа" transform="translate(475 215)" fill="#fefefe" font-size="14" font-family="Comfortaa-Bold, Comfortaa" font-weight="700"><tspan x="0" y="0">Верный выбор, Моя родная школа</tspan></text>
    <line id="Линия_20" data-name="Линия 20" x2="448" transform="translate(260.5 241.5)" fill="none" stroke="#7d9eee" stroke-width="1"/>
    <text id="Запланированные_мероприятия" data-name="Запланированные 
мероприятия" transform="translate(260 286)" fill="#fefefe" font-size="14" font-family="Comfortaa"><tspan x="0" y="0">Запланированные </tspan><tspan x="0" y="17">мероприятия</tspan></text>
    <line id="Линия_21" data-name="Линия 21" x2="448" transform="translate(260.5 323.5)" fill="none" stroke="#7d9eee" stroke-width="1"/>
    <text id="Доступный_театр_Проектный_офис" data-name="Доступный театр, Проектный 
офис" transform="translate(486 286)" fill="#fefefe" font-size="14" font-family="Comfortaa-Bold, Comfortaa" font-weight="700"><tspan x="0" y="0">Доступный театр, Проектный </tspan><tspan x="0" y="17">офис</tspan></text>
    <text id="_15" data-name="15" transform="translate(696 368)" fill="#fefefe" font-size="14" font-family="Comfortaa-Bold, Comfortaa" font-weight="700"><tspan x="0" y="0">15</tspan></text>
    <text id="Мероприятия_" data-name="Мероприятия " transform="translate(870 46)" fill="#fefefe" font-size="13" font-family="Comfortaa"><tspan x="0" y="0">Мероприятия </tspan></text>
    <text id="Организаторам" transform="translate(1008 46)" fill="#fefefe" font-size="13" font-family="Comfortaa"><tspan x="0" y="0">Организаторам</tspan></text>
    <text id="Топ_участников" data-name="Топ участников" transform="translate(1249 46)" fill="#fefefe" font-size="13" font-family="Comfortaa"><tspan x="0" y="0">Топ участников</tspan></text>
    <text id="Моя_гора" data-name="Моя гора" transform="translate(1152 47)" fill="#7d9eee" font-size="13" font-family="Comfortaa"><tspan x="0" y="0">Моя гора</tspan></text>
    <line id="Линия_32" data-name="Линия 32" x2="60" transform="translate(1152.5 69.5)" fill="none" stroke="#7d9eee" stroke-width="1"/>
  </g>
</svg>
