<svg xmlns="http://www.w3.org/2000/svg" width="215.047" height="153" viewBox="0 0 215.047 153">
  <g id="Сгруппировать_12" data-name="Сгруппировать 12" transform="translate(-378.053 -49)">
    <text id="КЛУБ_ЭЛЬБРУС_" data-name="КЛУБ &quot;ЭЛЬБРУС&quot;" transform="translate(385 196)" fill="#fefefe" font-size="26" font-family="Comfortaa-Bold, Comfortaa" font-weight="700"><tspan x="0" y="0">КЛУБ &quot;ЭЛЬБРУС&quot;</tspan></text>
    <g id="main-logo" transform="translate(378.053 49)">
      <path id="Контур_1" data-name="Контур 1" d="M.053,55.743l215.047.229L176.756,28.138l-12.578-4.957-14.026-1.525L143.977,15.4l-5.794-.991-17-14.183L112.951,0l-9.3,6.71L94.579.991l-8-.763L84.288,2.745,89.014,7.7,81.62,14.183l5.565,3.737L63.706,25.164,81.849,5.49,32.6,34.543l18.753-3.736.229,2.516L67.67,30.578l3.888,3.508-29.5,15.632,7.395-9.455Zm69.218-11.21,21.8-3.965,12.578-20.894,11.968,11.667,16.466,7.7L119.278,25.622l-.228-14.412,21.04,25.851,4.116-9.456,24.547,3.736,29.654,18.683-139.2.458Z" transform="translate(-0.053)" fill="#fefefe"/>
    </g>
    <line id="Линия_3" data-name="Линия 3" x2="208.143" transform="translate(383.976 159.122)" fill="none" stroke="#fefefe" stroke-width="1"/>
    <text id="ЛИДЕРЫ_РОССИИ" data-name="ЛИДЕРЫ РОССИИ" transform="translate(392 140)" fill="#fefefe" font-size="22" font-family="Comfortaa-Bold, Comfortaa" font-weight="700"><tspan x="0" y="0">ЛИДЕРЫ РОССИИ</tspan></text>
  </g>
</svg>
